HIERARCHY
ROOT Hips
{
	OFFSET	0.00	0.00	0.00
	CHANNELS 6 Xposition Yposition Zposition Zrotation Xrotation Yrotation
	JOINT LeftUpLeg
	{
		OFFSET	 0.126116	-0.014019	-0.065224
		CHANNELS 3 Zrotation Xrotation Yrotation
		JOINT LeftLeg
		{
			OFFSET	 0.000000	 0.000000	 0.569914
			CHANNELS 3 Zrotation Xrotation Yrotation
			JOINT LeftFoot
			{
				OFFSET	 0.000000	 0.000000	 0.544423
				CHANNELS 3 Zrotation Xrotation Yrotation
				JOINT LeftToeBase
				{
					OFFSET	 0.000000	 0.000000	 0.207117
					CHANNELS 3 Zrotation Xrotation Yrotation
					End Site
					{
						OFFSET	 0.000000	 0.000000	 0.207117
					}
				}
			}
		}
	}
	JOINT RightUpLeg
	{
		OFFSET	-0.124023	-0.008373	-0.065224
		CHANNELS 3 Zrotation Xrotation Yrotation
		JOINT RightLeg
		{
			OFFSET	 0.000000	 0.000000	 0.570047
			CHANNELS 3 Zrotation Xrotation Yrotation
			JOINT RightFoot
			{
				OFFSET	 0.000000	 0.000000	 0.544354
				CHANNELS 3 Zrotation Xrotation Yrotation
				JOINT RightToeBase
				{
					OFFSET	 0.000000	 0.000000	 0.207540
					CHANNELS 3 Zrotation Xrotation Yrotation
					End Site
					{
						OFFSET	 0.000000	 0.000000	 0.207540
					}
				}
			}
		}
	}
	JOINT Spine
	{
		OFFSET	 0.000184	-0.007763	 0.117403
		CHANNELS 3 Zrotation Xrotation Yrotation
		JOINT Spine1
		{
			OFFSET	 0.000000	 0.000000	 0.137269
			CHANNELS 3 Zrotation Xrotation Yrotation
			JOINT Spine2
			{
				OFFSET	 0.000000	 0.000000	 0.156879
				CHANNELS 3 Zrotation Xrotation Yrotation
				JOINT LeftShoulder
				{
					OFFSET	 0.080501	-0.002496	 0.160144
					CHANNELS 3 Zrotation Xrotation Yrotation
					JOINT LeftArm
					{
						OFFSET	 0.000000	 0.000000	 0.164363
						CHANNELS 3 Zrotation Xrotation Yrotation
						JOINT LeftForeArm
						{
							OFFSET	 0.000000	 0.000000	 0.364576
							CHANNELS 3 Zrotation Xrotation Yrotation
							JOINT LeftHand
							{
								OFFSET	 0.000000	 0.000000	 0.360812
								CHANNELS 3 Zrotation Xrotation Yrotation
								JOINT LeftHandIndex1
								{
									OFFSET	 0.000000	 0.000000	 0.086006
									CHANNELS 3 Zrotation Xrotation Yrotation
									JOINT LeftHandIndex2
									{
										OFFSET	 0.000000	 0.000000	 0.047236
										CHANNELS 3 Zrotation Xrotation Yrotation
										JOINT LeftHandIndex3
										{
											OFFSET	-0.004284	-0.000551	 0.038166
											CHANNELS 3 Zrotation Xrotation Yrotation
											End Site
											{
												OFFSET	-0.004284	-0.000551	 0.038166
											}
										}
									}
								}
							}
						}
					}
				}
				JOINT Neck
				{
					OFFSET	 0.000000	 0.000000	 0.176489
					CHANNELS 3 Zrotation Xrotation Yrotation
					JOINT Head
					{
						OFFSET	 0.000000	-0.001747	 0.077940
						CHANNELS 3 Zrotation Xrotation Yrotation
						End Site
						{
							OFFSET	 0.000000	-0.001747	 0.077940
						}
					}
				}
				JOINT RightShoulder
				{
					OFFSET	-0.080363	 0.000306	 0.159706
					CHANNELS 3 Zrotation Xrotation Yrotation
					JOINT RightArm
					{
						OFFSET	 0.000000	 0.000000	 0.164196
						CHANNELS 3 Zrotation Xrotation Yrotation
						JOINT RightForeArm
						{
							OFFSET	 0.000000	 0.000000	 0.365611
							CHANNELS 3 Zrotation Xrotation Yrotation
							JOINT RightHand
							{
								OFFSET	 0.000000	 0.000000	 0.360648
								CHANNELS 3 Zrotation Xrotation Yrotation
								JOINT RightHandIndex1
								{
									OFFSET	 0.000000	 0.000000	 0.069977
									CHANNELS 3 Zrotation Xrotation Yrotation
									JOINT RightHandIndex2
									{
										OFFSET	 0.000000	 0.000000	 0.052305
										CHANNELS 3 Zrotation Xrotation Yrotation
										JOINT RightHandIndex3
										{
											OFFSET	 0.009002	-0.000782	 0.042196
											CHANNELS 3 Zrotation Xrotation Yrotation
											End Site
											{
												OFFSET	 0.009002	-0.000782	 0.042196
											}
										}
									}
								}
							}
						}
					}
				}
			}
		}
	}
}
MOTION
Frames:    13
Frame Time: 0.03333334
 7.342011	 0.377298	-0.147856	-171.772000	 0.632279	 3.653426	 5.060397	-3.896046	 176.461100	-11.368600	-34.134110	-5.292637	 171.978300	 86.697730	 179.310400	-2.377662	 30.143060	-0.036973	 1.803169	-12.619030	 178.858100	 3.757051	-48.346940	 5.892814	-175.114500	 82.227410	-178.931100	 2.403648	 22.159600	-0.129886	 5.640771	 0.074514	-1.491850	 10.484380	-2.613223	 0.587716	 13.071470	-4.659449	 1.398401	-91.809370	 77.642410	 179.111800	 39.359920	 71.182420	-42.359300	-8.556861	-4.039429	-20.050410	 5.404479	-7.926431	-5.380865	-3.812334	 37.924440	-2.927599	-2.450526	 36.184240	 0.754587	-1.378229	 35.397820	-2.634230	 0.583798	 6.288982	-3.248259	 3.684231	-14.110280	-0.605052	 89.766450	 79.232830	-179.658800	-38.891870	 71.592300	 41.348940	 4.300583	-8.336520	 31.553480	-10.963960	-8.843724	 9.698454	 6.437017	 35.671460	-0.771858	 2.830251	 35.756010	-7.813440	-2.350882	 35.473990	 5.254307
 7.341568	 0.381031	-0.148122	-173.452900	 0.637174	 3.683148	 5.060806	-3.927655	 176.467100	-11.292400	-33.679140	-5.171089	 171.956400	 86.658710	 179.352600	-2.377576	 30.159490	-0.037336	 1.786850	-12.635100	 178.893600	 3.650012	-47.586240	 5.717088	-175.197700	 82.194980	-178.850600	 2.403662	 22.147030	-0.130140	 5.643861	 0.082590	-1.512546	 10.488250	-2.620421	 0.588895	 13.067080	-4.633757	 1.395009	-91.809550	 77.633420	 179.116000	 36.887220	 69.876160	-39.982270	-7.947521	-3.984839	-19.706260	 5.392878	-7.924729	-5.381391	-3.812334	 37.924440	-2.927599	-2.450526	 36.184240	 0.754587	-1.378229	 35.397820	-2.634230	 0.568331	 6.078076	-3.224245	 3.664932	-13.792110	-0.661424	 89.766080	 79.242040	-179.653800	-36.472320	 70.280670	 39.113640	 4.194333	-7.842474	 30.869650	-10.325110	-8.844333	 9.698285	 6.437017	 35.671460	-0.771858	 2.830251	 35.756010	-7.813440	-2.350882	 35.473990	 5.254307
 7.341042	 0.387014	-0.148544	-173.225500	 0.686062	 3.694183	 5.043282	-4.055174	 176.491300	-11.189560	-33.836870	-5.144201	 171.971400	 86.486700	 179.417800	-2.377056	 30.258350	-0.039528	 1.762624	-12.698900	 178.983400	 3.673165	-47.698640	 5.741545	-175.524500	 81.995430	-178.529500	 2.403650	 22.153640	-0.130004	 5.620484	 0.070610	-1.585243	 10.445420	-2.662343	 0.584575	 12.986030	-4.686579	 1.392244	-91.809810	 77.602660	 179.138100	 36.685020	 69.866490	-39.677470	-8.008112	-4.014986	-20.050440	 5.336448	-7.919974	-5.383317	-3.812334	 37.924440	-2.927599	-2.450526	 36.184240	 0.754587	-1.378229	 35.397820	-2.634230	 0.494505	 6.031172	-3.211046	 3.584398	-13.723160	-0.679626	 89.765090	 79.271510	-179.643200	-36.356990	 70.379260	 39.084210	 4.254348	-7.796978	 30.548260	-10.368030	-8.846105	 9.697862	 6.437017	 35.671460	-0.771858	 2.830251	 35.756010	-7.813440	-2.350882	 35.473990	 5.254307
 7.340696	 0.383348	-0.148827	-173.107700	 0.725246	 3.711619	 5.030534	-4.151845	 176.506700	-11.120080	-33.964590	-5.129856	 171.977900	 86.364710	 179.465900	-2.376579	 30.347480	-0.041503	 1.781955	-12.750210	 178.977500	 3.721920	-47.820270	 5.804712	-175.707700	 81.835110	-178.316700	 2.403626	 22.168080	-0.129712	 5.608974	 0.046531	-1.618883	 10.425870	-2.698895	 0.573416	 12.948670	-4.729052	 1.392987	-91.809690	 77.594310	 179.148700	 36.618120	 69.840310	-39.596340	-8.047767	-4.028348	-20.255780	 5.291509	-7.917449	-5.384438	-3.812334	 37.924440	-2.927599	-2.450526	 36.184240	 0.754587	-1.378229	 35.397820	-2.634230	 0.468704	 5.946259	-3.275750	 3.559774	-13.632390	-0.614103	 89.764540	 79.279790	-179.634600	-36.293110	 70.426360	 39.041520	 4.270215	-7.765613	 30.349360	-10.389750	-8.847707	 9.697471	 6.437017	 35.671460	-0.771858	 2.830251	 35.756010	-7.813440	-2.350882	 35.473990	 5.254307
 7.340360	 0.376106	-0.149207	-172.996700	 0.775570	 3.737502	 5.011223	-4.285353	 176.529900	-11.020270	-34.149450	-5.109521	 171.963800	 86.200740	 179.557700	-2.375875	 30.478220	-0.044413	 1.854135	-12.860480	 178.971000	 3.833887	-48.078930	 5.968471	-176.038200	 81.613200	-177.904100	 2.403563	 22.205500	-0.128958	 5.602652	 0.016043	-1.643325	 10.413070	-2.766171	 0.549148	 12.920880	-4.804790	 1.398476	-91.808800	 77.606410	 179.159700	 36.588360	 69.784970	-39.601730	-8.097323	-4.038465	-20.492200	 5.227243	-7.913888	-5.386064	-3.812334	 37.924440	-2.927599	-2.450526	 36.184240	 0.754587	-1.378229	 35.397820	-2.634230	 0.468576	 5.780142	-3.449750	 3.560704	-13.492620	-0.442399	 89.764240	 79.266650	-179.623700	-36.258360	 70.471600	 39.043750	 4.264509	-7.733454	 30.104600	-10.430130	-8.850709	 9.696625	 6.437017	 35.671460	-0.771858	 2.830251	 35.756010	-7.813440	-2.350882	 35.473990	 5.254307
 7.339332	 0.373392	-0.149572	-172.946000	 0.813141	 3.733171	 5.001683	-4.411568	 176.560100	-10.921820	-34.332230	-5.082734	 171.970200	 86.046560	 179.637300	-2.375250	 30.594300	-0.046992	 1.877162	-13.041020	 178.972100	 4.038209	-48.472900	 6.184931	-176.144900	 81.416860	-177.691900	 2.403284	 22.357110	-0.125892	 5.598750	 0.029069	-1.638286	 10.388400	-2.851964	 0.528644	 12.878760	-4.904184	 1.405005	-91.807170	 77.638910	 179.173700	 36.593850	 69.713910	-39.683410	-8.140064	-4.041361	-20.678810	 5.164641	-7.910866	-5.387576	-3.812334	 37.924440	-2.927599	-2.450526	 36.184240	 0.754587	-1.378229	 35.397820	-2.634230	 0.447124	 5.589082	-3.523469	 3.532682	-13.387280	-0.400137	 89.764790	 79.231800	-179.621500	-36.306900	 70.504040	 39.188710	 4.235813	-7.721620	 29.886610	-10.499900	-8.854245	 9.695777	 6.437017	 35.671460	-0.771858	 2.830251	 35.756010	-7.813440	-2.350882	 35.473990	 5.254307
 7.337805	 0.373384	-0.149941	-172.956900	 0.825822	 3.711589	 5.030419	-4.527105	 176.613900	-10.849040	-34.506060	-5.043935	 172.117100	 85.902850	 179.593200	-2.374743	 30.687050	-0.049060	 1.975577	-13.320360	 179.009000	 4.189716	-49.033450	 6.440830	-176.213800	 81.261490	-177.524000	 2.402660	 22.688370	-0.119188	 5.578702	 0.094398	-1.601924	 10.317840	-2.928865	 0.514297	 12.773010	-4.997648	 1.403747	-91.804760	 77.686870	 179.195400	 36.604230	 69.631230	-39.793720	-8.176144	-4.039275	-20.823210	 5.106366	-7.908487	-5.388965	-3.812334	 37.924440	-2.927599	-2.450526	 36.184240	 0.754587	-1.378229	 35.397820	-2.634230	 0.349104	 5.540293	-3.442716	 3.430979	-13.413720	-0.560684	 89.765450	 79.181790	-179.616700	-36.362290	 70.538180	 39.372040	 4.221645	-7.714511	 29.690020	-10.571190	-8.857830	 9.695042	 6.437017	 35.671460	-0.771858	 2.830251	 35.756010	-7.813440	-2.350882	 35.473990	 5.254307
 7.335981	 0.373391	-0.150346	-173.015800	 0.834561	 3.650618	 5.109913	-4.634338	 176.723100	-10.802490	-34.677460	-4.983006	 172.299100	 85.760770	 179.543700	-2.374369	 30.753560	-0.050547	 2.118649	-13.764290	 179.088200	 4.355762	-49.864700	 6.779899	-176.267700	 81.156800	-177.370100	 2.401522	 23.239250	-0.107982	 5.550526	 0.229470	-1.521525	 10.214510	-3.009368	 0.507490	 12.627200	-5.100528	 1.398880	-91.801540	 77.752780	 179.229000	 36.635970	 69.526860	-39.975820	-8.207522	-4.033154	-20.936930	 5.050503	-7.907021	-5.390309	-3.812334	 37.924440	-2.927599	-2.450526	 36.184240	 0.754587	-1.378229	 35.397820	-2.634230	 0.205106	 5.583659	-3.264175	 3.285284	-13.555050	-0.827187	 89.766910	 79.112860	-179.623400	-36.427570	 70.572110	 39.583820	 4.222550	-7.701867	 29.496190	-10.632710	-8.861648	 9.694407	 6.437017	 35.671460	-0.771858	 2.830251	 35.756010	-7.813440	-2.350882	 35.473990	 5.254307
 7.333983	 0.373372	-0.150765	-173.107700	 0.844602	 3.536356	 5.249945	-4.718222	 176.871000	-10.799870	-34.821740	-4.903227	 172.654200	 85.635930	 179.343100	-2.374064	 30.809960	-0.051807	 2.212736	-14.377760	 179.249700	 4.578793	-50.962320	 7.173018	-176.244300	 81.137870	-177.320400	 2.399713	 24.011470	-0.092176	 5.538600	 0.427350	-1.394060	 10.126750	-3.097227	 0.516658	 12.508270	-5.217800	 1.398344	-91.797990	 77.830430	 179.264800	 36.692680	 69.407460	-40.233430	-8.233851	-4.023205	-21.008190	 5.001517	-7.906953	-5.391389	-3.812334	 37.924440	-2.927599	-2.450526	 36.184240	 0.754587	-1.378229	 35.397820	-2.634230	 0.095299	 5.575440	-3.151973	 3.176221	-13.677850	-1.012897	 89.769060	 79.030080	-179.642600	-36.515340	 70.600690	 39.829850	 4.234067	-7.684815	 29.318130	-10.680270	-8.865825	 9.693763	 6.437017	 35.671460	-0.771858	 2.830251	 35.756010	-7.813440	-2.350882	 35.473990	 5.254307
 7.331894	 0.373338	-0.151214	-173.219100	 0.851927	 3.366317	 5.458398	-4.773397	 177.054200	-10.858140	-34.929730	-4.809144	 173.584300	 85.529900	 178.592100	-2.373502	 30.909520	-0.054032	 2.265644	-15.188810	 179.458600	 4.889459	-52.356350	 7.649826	-176.165800	 81.222640	-177.347300	 2.396581	 25.155130	-0.068541	 5.543548	 0.660382	-1.214713	 10.057070	-3.187579	 0.547830	 12.427070	-5.360223	 1.404570	-91.794570	 77.917440	 179.293100	 36.759190	 69.275120	-40.545080	-8.261626	-4.008092	-21.039070	 4.954477	-7.908550	-5.392216	-3.812334	 37.924440	-2.927599	-2.450526	 36.184240	 0.754587	-1.378229	 35.397820	-2.634230	 0.036260	 5.485010	-3.164923	 3.124024	-13.768990	-1.065801	 89.771530	 78.937440	-179.673500	-36.638530	 70.622760	 40.126730	 4.252234	-7.663997	 29.152600	-10.716360	-8.870102	 9.693184	 6.437017	 35.671460	-0.771858	 2.830251	 35.756010	-7.813440	-2.350882	 35.473990	 5.254307
 7.329520	 0.373348	-0.151739	-173.375000	 0.873740	 3.133975	 5.728776	-4.790769	 177.303200	-10.981630	-34.993890	-4.701948	 174.452200	 85.444520	 177.908000	-2.372693	 31.050510	-0.057205	 2.292677	-16.259150	 179.798500	 5.359241	-54.134250	 8.301168	-175.985200	 81.446750	-177.467000	 2.390700	 26.908460	-0.031715	 5.565299	 0.893453	-0.968464	 9.998307	-3.255815	 0.598210	 12.360240	-5.512147	 1.413269	-91.791190	 78.019210	 179.311500	 36.824410	 69.126800	-40.904340	-8.289402	-3.989056	-21.029240	 4.912943	-7.911939	-5.392720	-3.812334	 37.924440	-2.927599	-2.450526	 36.184240	 0.754587	-1.378229	 35.397820	-2.634230	 0.000003	 5.411007	-3.190964	 3.088899	-13.889060	-1.116629	 89.773640	 78.832210	-179.690500	-36.800750	 70.638700	 40.478940	 4.276245	-7.643294	 29.010740	-10.743580	-8.874134	 9.693013	 6.437017	 35.671460	-0.771858	 2.830251	 35.756010	-7.813440	-2.350882	 35.473990	 5.254307
 7.326754	 0.373351	-0.152434	-173.608000	 0.893701	 2.812105	 6.049326	-4.750885	 177.655700	-11.160320	-34.997120	-4.574813	 175.203800	 85.382380	 177.348400	-2.371757	 31.214760	-0.060890	 2.403004	-17.795340	-179.784800	 6.103640	-56.584710	 9.339097	-175.640900	 82.022530	-177.714000	 2.379753	 29.438050	 0.022858	 5.612811	 1.176891	-0.627098	 9.945643	-3.321177	 0.676041	 12.293310	-5.691191	 1.424674	-91.787130	 78.147430	 179.331400	 36.881170	 68.946750	-41.336050	-8.313572	-3.966187	-20.967870	 4.881780	-7.917695	-5.392620	-3.812334	 37.924440	-2.927599	-2.450526	 36.184240	 0.754587	-1.378229	 35.397820	-2.634230	-0.022468	 5.355334	-3.238461	 3.059444	-14.065410	-1.165536	 89.775710	 78.700720	-179.703200	-36.992790	 70.651210	 40.872340	 4.305827	-7.623002	 28.889550	-10.764430	-8.878469	 9.693228	 6.437017	 35.671460	-0.771858	 2.830251	 35.756010	-7.813440	-2.350882	 35.473990	 5.254307
 7.324629	 0.373358	-0.153028	-173.804400	 0.905726	 2.552472	 6.284559	-4.677835	 177.955700	-11.316410	-34.947140	-4.482701	 175.649600	 85.362440	 177.026100	-2.371125	 31.323830	-0.063343	 2.513740	-19.117590	-179.436900	 6.834654	-58.667770	 10.328680	-175.122500	 82.695180	-178.157300	 2.368305	 31.538270	 0.069689	 5.654273	 1.396097	-0.360333	 9.912301	-3.369600	 0.749223	 12.248140	-5.826603	 1.433803	-91.784410	 78.235230	 179.347800	 36.911390	 68.807040	-41.660880	-8.319310	-3.950382	-20.890590	 4.873807	-7.923501	-5.392184	-3.812334	 37.924440	-2.927599	-2.450526	 36.184240	 0.754587	-1.378229	 35.397820	-2.634230	-0.031107	 5.330059	-3.282502	 3.043873	-14.222470	-1.188812	 89.777040	 78.610150	-179.712700	-37.148670	 70.655270	 41.169200	 4.325707	-7.609902	 28.822200	-10.774340	-8.881756	 9.693488	 6.437017	 35.671460	-0.771858	 2.830251	 35.756010	-7.813440	-2.350882	 35.473990	 5.254307
